<svg xmlns="http://www.w3.org/2000/svg" viewBox="0 0 204.65 37.48"><defs><style>.cls-1{fill:#f39fae;}</style></defs><title>anikela logo</title><g id="Layer_2" data-name="Layer 2"><g id="Layer_1-2" data-name="Layer 1"><path d="M21.11,37.3h.6c1.56,0,2.44-2,1.93-4.19l-3.17-9.79H8.55L5.84,32.7c-.69,2.3.28,4.6,1.93,4.6h.6v.14H0V37.3H.6c1.65,0,4-2.26,4.64-4.6C8.19,23,11,13.15,13.94,3.36L13.8,2.9c2.53-.37,4.78-1.8,4.6-2.9H19l10.9,32.7c.78,2.3,2.39,4.6,3.27,4.6h.32v.14H21.06Zm-.83-14.49L14.17,4,8.69,22.81Z"/><path class="cls-1" d="M35.73,37.34H36c.69,0,1.33-1.15,1.33-2.3l.1-28L34.63,3.4c-1-1.28-2.39-2.3-3.36-2.3V1h9.2Q50.82,13.8,61.12,26.67L61,3.4V1h3.49V1.1c-.92,0-1.51.74-1.65,2l-.42,34.4H61.17q-11-14.14-22.08-28.37L39.27,35c0,1.15.69,2.3,1.34,2.3h.27v.14h-5.1Z"/><path d="M70.55,37.44V.92h6.21V37.44Z"/><path d="M115.89,37.48H106.1L91.24,19.22V37.48H85V1h6.21V19.22L102.51,5.7c1.93-2.3,1.89-4.6-.14-4.6h-.73V1h9.79V1.1c-1.47,0-3.63,1.29-5.15,3-3.36,3.77-6.71,7.59-10.07,11.36l16.33,19.73c1.1,1.2,2.43,2.12,3.35,2.12Z"/><path d="M138.47,22.58l-.13-.6a4.79,4.79,0,0,0-4.28-3.31h-7.91v17.2c0,.6.37,1.15,1.56,1.15h9.2c2.44,0,5.33-1.42,5.93-2.9l.23-.55h.42c-.05.23-.6,3.68-.65,3.68l0,.19H119.94V.92h21.71l0,.18h0c.13,1.06.36,3.09.5,4.14h-.41l-.23-.59a5.52,5.52,0,0,0-4.65-3.32H126.15V18.26h7.91A4.79,4.79,0,0,0,138.34,15l.13-.6h.42v8.23Z"/><path d="M171.45,36.88l0,.56H148.27V.92h6.21V35.87c0,.28.36.51,1.56.51h9.52c2.44,0,5.34-1.43,5.93-2.9l.23-.55h.42c-.19,1-.56,2.94-.74,4Z"/><path d="M192.23,37.3h.6c1.57,0,2.44-2,1.93-4.19l-3.17-9.79H179.68L177,32.7c-.69,2.3.28,4.6,1.94,4.6h.59v.14h-8.37V37.3h.6c1.66,0,4-2.26,4.65-4.6,2.94-9.75,5.79-19.55,8.69-29.34l-.14-.46c2.53-.37,4.78-1.8,4.6-2.9h.64q5.46,16.35,10.9,32.7c.79,2.3,2.39,4.6,3.27,4.6h.32v.14H192.19Zm-.82-14.49L185.29,4l-5.47,18.85Z"/></g></g></svg>